<svg width="24" height="24" viewBox="0 0 24 24" fill="none" xmlns="http://www.w3.org/2000/svg">
<circle cx="12" cy="12" r="12" fill="#15BC1C"/>
<g clip-path="url(#clip0_517_4242)">
<path d="M8.83534 16.3293L9.318 16.6113C10.132 17.0861 11.0577 17.3353 12 17.3333C13.0548 17.3333 14.086 17.0205 14.963 16.4345C15.8401 15.8485 16.5237 15.0155 16.9274 14.041C17.331 13.0664 17.4366 11.9941 17.2309 10.9595C17.0251 9.92496 16.5171 8.97465 15.7712 8.22877C15.0254 7.48289 14.0751 6.97494 13.0405 6.76915C12.0059 6.56336 10.9336 6.66898 9.95903 7.07265C8.98449 7.47631 8.15153 8.1599 7.5655 9.03696C6.97947 9.91402 6.66667 10.9452 6.66667 12C6.66667 12.9573 6.918 13.8753 7.38934 14.6827L7.67067 15.1653L7.23534 16.766L8.83534 16.3293ZM5.336 18.6667L6.23734 15.3547C5.64343 14.3366 5.3314 13.1787 5.33334 12C5.33334 8.318 8.318 5.33334 12 5.33334C15.682 5.33334 18.6667 8.318 18.6667 12C18.6667 15.682 15.682 18.6667 12 18.6667C10.8219 18.6686 9.66444 18.3568 8.64667 17.7633L5.336 18.6667ZM9.594 8.872C9.68334 8.86534 9.77334 8.86534 9.86267 8.86934C9.89867 8.872 9.93467 8.876 9.97067 8.88C10.0767 8.892 10.1933 8.95667 10.2327 9.046C10.4313 9.49667 10.6247 9.95067 10.8113 10.406C10.8527 10.5073 10.828 10.6373 10.7493 10.764C10.6952 10.8497 10.6367 10.9324 10.574 11.012C10.4987 11.1087 10.3367 11.286 10.3367 11.286C10.3367 11.286 10.2707 11.3647 10.296 11.4627C10.3053 11.5 10.336 11.554 10.364 11.5993L10.4033 11.6627C10.574 11.9473 10.8033 12.236 11.0833 12.508C11.1633 12.5853 11.2413 12.6647 11.3253 12.7387C11.6373 13.014 11.9907 13.2387 12.372 13.4053L12.3753 13.4067C12.432 13.4313 12.4607 13.4447 12.5433 13.48C12.5847 13.4973 12.6273 13.5127 12.6707 13.524C12.7155 13.5354 12.7626 13.5333 12.8062 13.5178C12.8497 13.5024 12.8877 13.4744 12.9153 13.4373C13.398 12.8527 13.442 12.8147 13.446 12.8147V12.816C13.4795 12.7847 13.5194 12.761 13.5628 12.7464C13.6063 12.7318 13.6524 12.7267 13.698 12.7313C13.738 12.734 13.7787 12.7413 13.816 12.758C14.17 12.92 14.7493 13.1727 14.7493 13.1727L15.1373 13.3467C15.2027 13.378 15.262 13.452 15.264 13.5233C15.2667 13.568 15.2707 13.64 15.2553 13.772C15.234 13.9447 15.182 14.152 15.13 14.2607C15.0944 14.3348 15.0471 14.4028 14.99 14.462C14.9227 14.5326 14.8491 14.5969 14.77 14.654C14.7426 14.6746 14.7149 14.6946 14.6867 14.714C14.6038 14.7666 14.5186 14.8155 14.4313 14.8607C14.2597 14.9518 14.0701 15.0042 13.876 15.014C13.7527 15.0207 13.6293 15.03 13.5053 15.0233C13.5 15.0233 13.1267 14.9653 13.1267 14.9653C12.1788 14.716 11.3023 14.249 10.5667 13.6013C10.416 13.4687 10.2767 13.326 10.134 13.184C9.54067 12.594 9.09267 11.9573 8.82067 11.356C8.68145 11.0609 8.60625 10.7396 8.6 10.4133C8.59726 10.0086 8.72957 9.61445 8.976 9.29334C9.02467 9.23067 9.07067 9.16534 9.15 9.09C9.23467 9.01 9.288 8.96734 9.346 8.938C9.42312 8.89936 9.50725 8.87668 9.59334 8.87134L9.594 8.872Z" fill="white"/>
</g>
<defs>
<clipPath id="clip0_517_4242">
<rect width="16" height="16" fill="white" transform="translate(4 4)"/>
</clipPath>
</defs>
</svg>
