<svg width="34" height="24" viewBox="0 0 22 22" fill="none" xmlns="http://www.w3.org/2000/svg">
<path d="M20.607 0.201172H1.39142C1.07523 0.201172 0.771987 0.326778 0.548406 0.550359C0.324825 0.77394 0.199219 1.07718 0.199219 1.39337V20.6093C0.199298 20.9254 0.32494 21.2286 0.548512 21.4521C0.772084 21.6756 1.07528 21.8012 1.39142 21.8012H11.7363V13.4366H8.92142V10.1768H11.7363V7.77257C11.7363 4.98257 13.4403 3.46367 15.9291 3.46367C17.1213 3.46367 18.1458 3.55217 18.4446 3.59207V6.50777L16.7184 6.50867C15.3648 6.50867 15.1029 7.15187 15.1029 8.09567V10.1771H18.3309L17.9106 13.4369H15.1029V21.8012H20.6073C20.9235 21.8011 21.2266 21.6755 21.4501 21.4519C21.6737 21.2283 21.7992 20.9251 21.7992 20.609V1.39337C21.7992 1.07718 21.6736 0.77394 21.45 0.550359C21.2265 0.326778 20.9232 0.201172 20.607 0.201172Z" fill="#415799"/>
</svg>
