<svg width="32" height="32" viewBox="0 0 32 32" fill="none" xmlns="http://www.w3.org/2000/svg">
<path d="M30.7149 28.6435L30.7135 28.6422L21.8801 19.849C23.7267 17.5258 24.6241 14.5926 24.389 11.6403C24.1515 8.65819 22.7765 5.88342 20.5468 3.88657C18.3172 1.88972 15.4024 0.822542 12.4018 0.904382C9.40112 0.986222 6.54262 2.21086 4.41405 4.32659C2.28546 6.44232 1.0486 9.28833 0.957881 12.2794C0.867166 15.2706 1.9295 18.1793 3.92635 20.4076C5.92319 22.6358 8.70276 24.0143 11.6935 24.2596C14.6545 24.5024 17.5997 23.6162 19.9356 21.7819L28.7307 30.5751C28.7307 30.5752 28.7307 30.5752 28.7308 30.5752C28.8599 30.7054 29.0136 30.8086 29.1831 30.8791C29.3526 30.9496 29.5345 30.9858 29.7184 30.9858C29.9022 30.9858 30.0843 30.9496 30.2543 30.8791C30.4242 30.8086 30.5785 30.7053 30.7084 30.5751L30.7093 30.5742C30.9612 30.3153 31.1026 29.9691 31.1036 29.6089C31.1047 29.2486 30.9652 28.9025 30.7149 28.6435ZM12.6904 21.5482C10.9201 21.5482 9.19101 21.0249 7.72189 20.0445C6.25278 19.0642 5.1096 17.6707 4.43688 16.0405C3.76415 14.4103 3.59208 12.6165 3.94239 10.8859C4.29271 9.15531 5.1497 7.5656 6.40504 6.31785C7.66038 5.07008 9.2577 4.22031 10.995 3.87604C12.7323 3.53176 14.5316 3.70846 16.1652 4.38377C17.7988 5.05908 19.1934 6.20266 20.1726 7.66984C21.1519 9.13701 21.6718 10.8619 21.6667 12.6264C21.6599 14.9925 20.7105 17.2618 19.0271 18.935C17.3438 20.6082 15.0644 21.5482 12.6904 21.5482Z" fill="black" stroke="#333333" stroke-width="0.2"/>
</svg>
