<svg width="14" height="14" viewBox="0 0 14 14" fill="none" xmlns="http://www.w3.org/2000/svg">
<path d="M10.9446 8.54601C10.7719 8.71335 10.6926 8.95535 10.7319 9.19268L11.3246 12.4727C11.3746 12.7507 11.2573 13.032 11.0246 13.1927C10.7966 13.3593 10.4933 13.3793 10.2446 13.246L7.29195 11.706C7.18928 11.6513 7.07528 11.622 6.95861 11.6187H6.77795C6.71528 11.628 6.65395 11.648 6.59795 11.6787L3.64461 13.226C3.49861 13.2993 3.33328 13.3253 3.17128 13.2993C2.77661 13.2247 2.51328 12.8487 2.57795 12.452L3.17128 9.17202C3.21061 8.93268 3.13128 8.68935 2.95861 8.51935L0.551282 6.18602C0.349948 5.99068 0.279948 5.69735 0.371948 5.43268C0.461282 5.16868 0.689282 4.97602 0.964615 4.93268L4.27795 4.45202C4.52995 4.42602 4.75128 4.27268 4.86461 4.04602L6.32461 1.05268C6.35928 0.986016 6.40395 0.924682 6.45795 0.872682L6.51795 0.826016C6.54928 0.791349 6.58528 0.762682 6.62528 0.739349L6.69795 0.712682L6.81128 0.666016H7.09195C7.34261 0.692016 7.56328 0.842016 7.67861 1.06602L9.15795 4.04602C9.26461 4.26402 9.47195 4.41535 9.71128 4.45202L13.0246 4.93268C13.3046 4.97268 13.5386 5.16602 13.6313 5.43268C13.7186 5.70002 13.6433 5.99335 13.4379 6.18602L10.9446 8.54601Z" fill="#EFCD47"/>
</svg>
