<svg width="11" height="10" viewBox="0 0 11 10" fill="none" xmlns="http://www.w3.org/2000/svg">
<path d="M8.45925 6.16006C8.32975 6.28556 8.27025 6.46706 8.29975 6.64506L8.74425 9.10506C8.78175 9.31356 8.69375 9.52456 8.51925 9.64506C8.34825 9.77006 8.12075 9.78506 7.93425 9.68506L5.71975 8.53006C5.64275 8.48906 5.55725 8.46706 5.46975 8.46456H5.33425C5.28725 8.47156 5.24125 8.48656 5.19925 8.50956L2.98425 9.67006C2.87475 9.72506 2.75075 9.74456 2.62925 9.72506C2.33325 9.66906 2.13575 9.38706 2.18425 9.08956L2.62925 6.62956C2.65875 6.45006 2.59925 6.26756 2.46975 6.14006L0.664251 4.39006C0.513251 4.24356 0.460751 4.02356 0.529751 3.82506C0.596751 3.62706 0.767751 3.48256 0.974251 3.45006L3.45925 3.08956C3.64825 3.07006 3.81425 2.95506 3.89925 2.78506L4.99425 0.540061C5.02025 0.490061 5.05375 0.444061 5.09425 0.405061L5.13925 0.370061C5.16275 0.344061 5.18975 0.322561 5.21975 0.305061L5.27425 0.285061L5.35925 0.250061H5.56975C5.75775 0.269561 5.92325 0.382061 6.00975 0.550061L7.11925 2.78506C7.19925 2.94856 7.35475 3.06206 7.53425 3.08956L10.0192 3.45006C10.2292 3.48006 10.4047 3.62506 10.4742 3.82506C10.5397 4.02556 10.4832 4.24556 10.3293 4.39006L8.45925 6.16006Z" fill="#E0DFE0"/>
</svg>
