<svg width="24" height="24" viewBox="0 0 24 24" fill="none" xmlns="http://www.w3.org/2000/svg">
<path d="M12.8399 2.15991V4.70551H11.1599V2.15991H12.8399Z" fill="#0979CF"/>
<path d="M1.76001 11.5598H4.30561V13.2398H1.76001V11.5598Z" fill="#0979CF"/>
<path d="M22.2399 13.2398H19.6943V11.5598H22.2399V13.2398Z" fill="#0979CF"/>
<path d="M9.44001 19.0442C9.44001 18.671 9.4336 18.2974 9.4432 17.9242C9.4468 17.7906 9.3984 17.7294 9.2832 17.665C7.6604 16.7482 6.5548 15.425 6.1536 13.5782C5.60001 11.0266 6.89081 8.32659 9.2224 7.11979C12.8896 5.2214 17.2692 7.43979 17.91 11.5222C18.2996 14.0062 17.0416 16.4606 14.752 17.6634C14.5976 17.7434 14.552 17.831 14.5556 17.9982C14.566 18.6782 14.5624 19.3582 14.5592 20.0382C14.5548 21.0154 13.9592 21.7066 12.992 21.7706C12.3003 21.8149 11.6063 21.8107 10.9152 21.7582C10.0704 21.6954 9.47081 21.0146 9.44401 20.1646C9.43241 19.7918 9.442 19.4182 9.442 19.0446L9.44001 19.0442ZM12.85 20.0738V17.1998C12.85 16.6582 12.8528 16.6662 13.3536 16.4798C15.0988 15.8334 16.0824 14.5802 16.246 12.7282C16.4828 10.0402 14.116 7.78739 11.4436 8.17419C9.7108 8.42499 8.50841 9.4142 7.95761 11.0762C7.40961 12.7314 7.82961 14.201 9.03761 15.4454C9.53761 15.9614 10.1512 16.3042 10.8208 16.5542C11.1524 16.6778 11.1508 16.6818 11.1508 17.0422C11.1508 17.9814 11.1508 18.9209 11.1508 19.8606C11.1508 19.9302 11.1568 19.9998 11.16 20.0722L12.85 20.0738Z" fill="#0979CF"/>
<path d="M5.93961 7.49798L4.18481 5.74638L5.34281 4.58838L7.09641 6.34158L5.93961 7.49798Z" fill="#0979CF"/>
<path d="M16.9043 6.32946L18.6443 4.59106L19.8043 5.74266L18.0599 7.48266L16.9043 6.32946Z" fill="#0979CF"/>
<path d="M5.33709 20.2186L4.19189 19.073L5.94869 17.3198L7.09549 18.4646L5.33709 20.2186Z" fill="#0979CF"/>
<path d="M18.0831 17.3159L19.8103 19.0451C19.4267 19.4291 19.0323 19.8231 18.6503 20.2051L16.9199 18.4727L18.0831 17.3159Z" fill="#0979CF"/>
</svg>
